<svg preserveAspectRatio="none" overflow="visible" style="display: block;" width="100" height="100" viewBox="0 0 100 100" fill="none" xmlns="http://www.w3.org/2000/svg">
<foreignObject x="-20" y="-20" width="140" height="140"><div xmlns="http://www.w3.org/1999/xhtml" style="backdrop-filter:blur(10px);clip-path:url(#bgblur_0_0_86_clip_path);height:100%;width:100%"></div></foreignObject><g id="Frame 38" data-figma-bg-blur-radius="20">
<rect width="100" height="100" rx="50" fill="white" fill-opacity="0.1"/>
<ellipse id="Ellipse 2" cx="50" cy="49.5" rx="30" ry="29.5" fill="#D9D9D9"/>
<g id="Logos/nextjs-original">
<path id="Vector" d="M49.5 19C32.6773 19 19 32.6773 19 49.5C19 66.3227 32.6773 80 49.5 80C54.8375 80 59.8414 78.618 64.1781 76.2352L42.0656 45.3539V62.7961H38.825V38.9203H42.0656L66.132 75.0438C74.4719 69.6109 80 60.2227 80 49.5C80 32.6773 66.3227 19 49.5 19ZM60.032 59.3172L56.4578 53.932V38.9203H60.032V59.3172Z" fill="black"/>
</g>
</g>
<defs>
<clipPath id="bgblur_0_0_86_clip_path" transform="translate(20 20)"><rect width="100" height="100" rx="50"/>
</clipPath></defs>
</svg>
