<svg preserveAspectRatio="none" overflow="visible" style="display: block;" width="58.6875" height="52.4062" viewBox="0 0 58.6875 52.4062" fill="none" xmlns="http://www.w3.org/2000/svg">
<g id="Group">
<path id="Vector" d="M29.3437 31.5469C32.295 31.5469 34.6875 29.1544 34.6875 26.2031C34.6875 23.2519 32.295 20.8594 29.3437 20.8594C26.3925 20.8594 24 23.2519 24 26.2031C24 29.1544 26.3925 31.5469 29.3437 31.5469Z" fill="#61DAFB"/>
<path id="Vector_2" d="M49.6406 17.3906C48.6094 17.0156 47.5313 16.6406 46.4062 16.3125C46.6875 15.1875 46.9219 14.0625 47.1094 12.9844C48.0937 6.79687 47.0156 2.4375 44.0156 0.75C43.125 0.234375 42.1406 0 41.0156 0C37.7344 0 33.5625 2.4375 29.3437 6.51562C25.125 2.4375 20.9531 0 17.6719 0C16.5469 0 15.5625 0.234375 14.6719 0.75C11.6719 2.48437 10.5938 6.84375 11.5781 12.9844C11.7656 14.0625 12 15.1875 12.2813 16.3125C11.1563 16.6406 10.0781 16.9687 9.04688 17.3906C3.1875 19.6406 0 22.7344 0 26.2031C0 29.6719 3.23438 32.7656 9.04688 35.0156C10.0781 35.3906 11.1563 35.7656 12.2813 36.0938C12 37.2188 11.7656 38.3437 11.5781 39.4219C10.5938 45.6094 11.6719 49.9688 14.6719 51.6563C15.5625 52.1719 16.5469 52.4063 17.6719 52.4063C21 52.4063 25.1719 49.9688 29.3437 45.8906C33.5625 49.9688 37.7344 52.4063 41.0156 52.4063C42.1406 52.4063 43.125 52.1719 44.0156 51.6563C47.0156 49.9219 48.0937 45.5625 47.1094 39.4219C46.9219 38.3437 46.6875 37.2188 46.4062 36.0938C47.5313 35.7656 48.6094 35.4375 49.6406 35.0156C55.5 32.7656 58.6875 29.6719 58.6875 26.2031C58.6875 22.7344 55.5 19.6406 49.6406 17.3906V17.3906ZM42.7031 3.09375C44.625 4.21875 45.2813 7.6875 44.4844 12.6094C44.3438 13.5937 44.1094 14.625 43.8281 15.7031C41.3906 15.1406 38.8125 14.7656 36.0938 14.5312C34.5 12.2812 32.8594 10.2656 31.2187 8.4375C34.6875 5.01562 38.2031 2.67187 41.0625 2.67187C41.6719 2.67187 42.2344 2.8125 42.7031 3.09375V3.09375ZM37.4531 30.8906C36.6094 32.3906 35.625 33.8906 34.5937 35.3906C32.8594 35.5313 31.125 35.5781 29.3437 35.5781C27.5156 35.5781 25.7812 35.5313 24.0937 35.3906C23.0625 33.8906 22.125 32.3906 21.2812 30.8906C20.3906 29.3438 19.5469 27.75 18.7969 26.2031C19.5469 24.6563 20.3906 23.0625 21.2812 21.5156C22.125 20.0156 23.1094 18.5156 24.1406 17.0156C25.875 16.875 27.6094 16.8281 29.3906 16.8281C31.2187 16.8281 32.9531 16.875 34.6406 17.0156C35.6719 18.5156 36.6094 20.0156 37.4531 21.5156C38.3438 23.0625 39.1875 24.6563 39.9375 26.2031C39.1406 27.75 38.3438 29.2969 37.4531 30.8906ZM41.3437 29.3437C42.0469 30.9844 42.6094 32.5781 43.125 34.1719C41.5312 34.5469 39.8437 34.8281 38.0625 35.0625C38.625 34.1719 39.2344 33.2344 39.75 32.25C40.3125 31.2656 40.8281 30.2812 41.3437 29.3437ZM29.3437 42.0469C28.2187 40.8281 27.1406 39.5156 26.1094 38.1563C27.1875 38.2031 28.2656 38.25 29.3437 38.25C30.4219 38.25 31.5 38.2031 32.5781 38.1563C31.5469 39.5156 30.4687 40.8281 29.3437 42.0469ZM20.625 35.0156C18.8438 34.7813 17.1562 34.5 15.5625 34.125C16.0781 32.5781 16.6406 30.9375 17.3438 29.2969C17.8594 30.2344 18.375 31.2187 18.9375 32.1562C19.5 33.1875 20.0625 34.0781 20.625 35.0156V35.0156ZM17.3438 23.0625C16.6406 21.4219 16.0781 19.8281 15.5625 18.2344C17.1562 17.8594 18.8438 17.5781 20.625 17.3438C20.0625 18.2344 19.4531 19.1719 18.9375 20.1562C18.375 21.1406 17.8594 22.125 17.3438 23.0625V23.0625ZM29.3437 10.3594C30.4687 11.5781 31.5469 12.8906 32.5781 14.25C31.5 14.2031 30.4219 14.1562 29.3437 14.1562C28.2656 14.1562 27.1875 14.2031 26.1094 14.25C27.1406 12.8906 28.2187 11.5781 29.3437 10.3594ZM39.75 20.2031L38.0625 17.3906C39.8437 17.625 41.5312 17.9062 43.125 18.2812C42.6094 19.8281 42.0469 21.4688 41.3437 23.1094C40.8281 22.125 40.3125 21.1406 39.75 20.2031ZM14.2031 12.6094C13.4063 7.6875 14.0625 4.21875 15.9844 3.09375C16.4531 2.8125 17.0156 2.67187 17.625 2.67187C20.4375 2.67187 23.9531 4.96875 27.4687 8.4375C25.8281 10.2187 24.1875 12.2812 22.5937 14.5312C19.875 14.7656 17.2969 15.1875 14.8594 15.7031C14.5781 14.625 14.3906 13.5937 14.2031 12.6094V12.6094ZM2.625 26.2031C2.625 24 5.29688 21.6563 9.98438 19.9219C10.9219 19.5469 11.9531 19.2188 12.9844 18.9375C13.7344 21.2813 14.6719 23.7656 15.7969 26.25C14.6719 28.7344 13.6875 31.1719 12.9844 33.5156C6.51563 31.6406 2.625 28.8281 2.625 26.2031ZM15.9844 49.3125C14.0625 48.1875 13.4063 44.7188 14.2031 39.7969C14.3438 38.8125 14.5781 37.7813 14.8594 36.7031C17.2969 37.2656 19.875 37.6406 22.5937 37.875C24.1875 40.125 25.8281 42.1406 27.4687 43.9688C24 47.3906 20.4844 49.7344 17.625 49.7344C17.0156 49.7344 16.4531 49.5938 15.9844 49.3125ZM44.4844 39.7969C45.2813 44.7188 44.625 48.1875 42.7031 49.3125C42.2344 49.5938 41.6719 49.7344 41.0625 49.7344C38.25 49.7344 34.7344 47.4375 31.2187 43.9688C32.8594 42.1875 34.5 40.125 36.0938 37.875C38.8125 37.6406 41.3906 37.2188 43.8281 36.7031C44.1094 37.7813 44.2969 38.8125 44.4844 39.7969V39.7969ZM48.7031 32.4844C47.7656 32.8594 46.7344 33.1875 45.7031 33.4688C44.9531 31.125 44.0156 28.6406 42.8906 26.1563C44.0156 23.6719 45 21.2344 45.7031 18.8906C52.1719 20.7656 56.0625 23.5781 56.0625 26.2031C56.0625 28.4063 53.3438 30.75 48.7031 32.4844Z" fill="#61DAFB"/>
</g>
</svg>
